<?xml version="1.0" encoding="utf-8"?>
<!-- Generator: Adobe Illustrator 16.0.0, SVG Export Plug-In . SVG Version: 6.00 Build 0)  -->
<!DOCTYPE svg PUBLIC "-//W3C//DTD SVG 1.1//EN" "http://www.w3.org/Graphics/SVG/1.1/DTD/svg11.dtd">
<svg version="1.1" xmlns="http://www.w3.org/2000/svg" xmlns:xlink="http://www.w3.org/1999/xlink" x="0px" y="0px"
	 width="1700.79px" height="1700.79px" viewBox="0 0 1700.79 1700.79" enable-background="new 0 0 1700.79 1700.79"
	 xml:space="preserve">
<g id="Layer_1">
</g>
<g id="Layer_5">
	<path fill="#EBEBEA" d="M184.5,1700.79h309.832c0,0-14.669,23.11,0,0s18.002-81.777,18.002-81.777L559,1456l117-170l118-83l70-65
		c0,0-13.5,1.5,0,0s23-11.5,23-11.5c5-7,13.5-7.498,13.5-7.498c9.5-4.002,15.5-16.453,15.5-16.453l5.5-5.549l79.5-29.638
		l126.5-15.862l90.835,9.32c0,0-106.077,97.156,0,0C1270,1013.5,1154.28,972,1154.28,972c-89.78-40-188.279-4.335-188.279-4.335
		s45.001,6.165,0,0S864,981.679,864,981.679c-5,3.821-11-2.831-11-2.831c-22.5-17.848-58.41-20.052-58.41-20.052s113.505,9.578,0,0
		C678.5,949,662.016,837.5,662.016,837.5C674,804,660,788.5,660,788.5C665,737,705,676,705,676c19.5-32,17-57.5,17-57.5
		c17.5-18.5,13-30,13-30c26.5-88-11-72.502-11-72.502s7,9.998,0,0s-13-1.051-13-1.051c-7,15.054-12.667,40.38-12.667,40.38
		L692.5,608L675,630.5l-33.333,22.826c0,0-10.833,22.826,0,0S650.5,609.5,650.5,609.5c35.5-55,38-108.5,38-108.5
		C781,345.5,726,341.661,726,341.661L693.5,371.5l-18,40L611,492c0,0,0.5,24.5,0,0s-3.364-30.5-3.364-30.5
		c-4.636-18.5,0-39.5,0-39.5c12.364-35,2.864-70,2.864-70c9-201-65.5-174.998-65.5-174.998l-8.618,58.498
		c-4.382,32,0.261,64.171,0.261,64.171L543,352.5L515.945,447L489.5,481.5c0,0,7.5,7.5,0,0s-6.5-22-6.5-22c-8-39-28-59-28-59
		c-0.5-36.5-25.573-79.161-25.573-79.161L399,332.911L427.5,540.5l37,165l13.5,34l-9,0.5c-5.5,7.5-10.226,16.543-10.226,16.543
		L460.5,906.5l-10.309,141l2.309,76.5l-6,42l-12.375,35.225c0,0,38.516-102.06,0,0C401,1289,373,1318.5,373,1318.5
		c-28.5,26.5-25,69-25,69L322.5,1494L263,1623L184.5,1700.79"/>
</g>
<g id="Layer_4">
	<path fill="#C1BEBD" d="M392.998,1700.79h101.333c18.667-27.792,26.002-85.79,26.002-85.79s-51.205,81.625,0,0
		c49.21-78.446,87.588-190.669,87.588-190.669c54.411-69.338,55.078-92.005,55.078-92.005
		c164.667-88.666,182.667-184.666,182.667-184.666c-10.667-12-28.666-16-28.666-16c-235.777,97.341-343.879,324.008-343.879,324.008
		C452.334,1561.224,392.998,1700.79,392.998,1700.79z"/>
	<path fill="#C1BEBD" d="M823.178,1072.099c-22.667,9-47.333,28.549-47.333,28.549c-17.333,16.453-6-14.274-6-14.274
		c94-125.274,161.895-42.184,161.895-42.184c6.105,10.243-19.428,5.988-19.428,5.988s42.467-3.588,0,0s-88.134,21.921-88.134,21.921
		"/>
	<path fill="#C1BEBD" d="M1031.44,1047.371c3.561-17.037,24.228-18.921,24.228-18.921c36.333,0.235,0-18.449,0-18.449
		c-37.667-11.667,6.667-11.667,6.667-11.667c58,3,91.945,31.226,91.945,31.226s48.945-2.774,0,0s-56.279,22.108-56.279,22.108
		C1072.001,1089.334,1031.44,1047.371,1031.44,1047.371"/>
	<path fill="#C1BEBD" d="M966.001,967.665c37.334-9.667,90.334-15.334,90.334-15.334c-32,7.334-28.334,23.334-28.334,23.334
		c0.334,12-9,2.333-9,2.333C1001.001,967.331,966.001,967.665,966.001,967.665z"/>
	<path fill="#C1BEBD" d="M607,1203c32.667-14.671,73.333-16.671,73.333-16.671c46.667-0.667,43.333-42,43.333-42
		c-14.667-51.333,14.667-68.779,14.667-68.779c37.333-34.38-14.667-29.459-14.667-29.459C666.962,1056.33,659,1041.17,659,1041.17
		c-18.667-31.507-16.667-88.839-16.667-88.839c-8.583-116.667-76.667-162.667-76.667-162.667C543,773.665,551,756.998,551,756.998
		c0-31.424-24-52.667-24-52.667c-17.333-10.667-11.333-32.667-11.333-32.667c-2-48-30.327-96.666-30.327-96.666
		C463,559.666,471,536.332,471,536.332c-4-60.667-35.333-110.667-35.333-110.667c-6-13.333,0-22.667,0-22.667
		c11.333-30.666-6.001-78.819-6.001-78.819C425,262.333,389,244,389,244l-49.709-5.998L347,321.339c0,0-4.666-8.994,0,0
		s15.333,11.572,15.333,11.572C361.172,370.415,399,514.331,399,514.331c-34.667,85.331,15.333,107.996,15.333,107.996
		l58.788,98.175l16.545,364.489L607,1203"/>
	<path fill="#C1BEBD" d="M775.667,956.576c-86.167-20.92-105.333-94.907-105.333-94.907s22.041-71.366,0,0
		C642.333,952.331,694,971,694,971s-49.766-14.163,0,0C745.5,985.656,775.667,956.576,775.667,956.576"/>
	<path fill="#C1BEBD" d="M512.5,556.995c16.5,29.332,35.833,81.671,35.833,81.671c72.333-176,6.333-160.333,6.333-160.333
		c52-70.664,32.758-96.331,32.758-96.331c-7.091-9.667,8.575-25.333,8.575-25.333c34-88.664-17.333-126.103-17.333-126.103
		c-15-2.892-21,34.775-21,34.775L512.5,462V556.995"/>
	<path fill="#C1BEBD" d="M602.5,567.5c-8.833,42.828-23.5,77.494-23.5,77.494c124.667-84.333,94-150,94-150
		c-2.333-18.996,20-32.662,20-32.662c32.667-47.997,42-112.742,42-112.742c-4.667-7.586-12.667-9.253-12.667-9.253l-38,59.998
		c-35.5,31.222-43,56.664-43,56.664L602.5,567.5"/>
	<path fill="#C1BEBD" d="M625.667,699.659c-7,16.002-18.031,31.002-18.031,31.002c15.031,11,32.031,31,32.031,31
		c28-73,72.333-130.333,72.333-130.333c12-22.999,9.667-40.666,9.667-40.666C721.333,565.997,736,544.993,736,544.993
		c9.333-18.996-12-28.996-12-28.996c-5,18-16,28.996-16,28.996l-19.333,50.671l-18,34.667l-28.333,32.998L625.667,699.659"/>
</g>
<g id="Layer_3">
	<path fill="#818080" d="M462.333,752.331c10.667,80,10.001,154.001,10.001,154.001h-36.976
		C409,807.664,462.333,752.331,462.333,752.331z"/>
	<path fill="#818080" d="M356.333,1480.665c11.333-39.333,8-78.333,8-78.333C493,1207,480.333,992.995,480.333,992.995
		l21.507-225.862c0,0-15.845-93.506,0,0C523,892,588,890,588,890c-8,21-29,28-29,28c-82.434,162.733,5,237,5,237c54-5,43,48,43,48
		c-117,64-138,198-138,198C427,1449,356.333,1480.665,356.333,1480.665z"/>
	<path fill="#818080" d="M1103.5,1059.456C1103.5,1059.456,1066.699,1044.804,1103.5,1059.456
		c103.501,41.211,117.835,10.544,117.835,10.544c0.666-5.333-3-9.18-3-9.18C1113.399,988.793,1103.5,1059.456,1103.5,1059.456"/>
	<path fill="#818080" d="M660.667,909.002c1-26.667,9.667-47.333,9.667-47.333c-9.667-15-2.667-29.337-2.667-29.337
		c1.667-15.33-2.167-20.33-2.167-20.33c-2.833,45.667-32.167,56-32.167,56C627,872.335,643,873.335,643,873.335
		c19.667-8,14,6.334,14,6.334C655.667,894.002,660.667,909.002,660.667,909.002z"/>
	<path fill="#818080" d="M347,321.339c24-28-1.5-85.339-1.5-85.339s5.5,3.328,0,0s-9.5,0-9.5,0l-12.667,6.006c-2.509,3.259-2,6-2,6
		C323.667,293.339,347,321.339,347,321.339z"/>
	<path fill="#818080" d="M535.667,243.336c18.333-20,9.333-66.333,9.333-66.333c-9.333-6.667-17.5,0-17.5,0
		C521.667,212.002,535.667,243.336,535.667,243.336z"/>
	<path fill="#818080" d="M498,533c0.116,0.164,0.232,0.329,0.349,0.494c7.21,10.265,14.151,23.501,14.151,23.501
		c26.167-45,7.833-78,7.833-78c-4.333-3.332,7.167,1.334,7.167,1.334c41-47,30.833-97.333,30.833-97.333
		C555.333,369.333,568.5,356,568.5,356c31.5-52.996,14.167-115.663,14.167-115.663c-12-7.667-18.333,6-18.333,6
		c-8.333,44.333-27.69,53.333-27.69,53.333c-6.31,16.996-4.144,39.829-4.144,39.829l3.167,15.499L527.5,375c0,0,9.167-14.999,0,0
		s-11.167,42.333-11.167,42.333c-3.833,12.418-11.742,25.332-11.742,25.332c-7.592,15.667-6.592,27-6.592,27
		c-5.333,3.333-8.5,11.836-8.5,11.836s-9.36-13.962,0,0S498,533,498,533"/>
	<path fill="#818080" d="M683,393.5c43-15.167,43-54.167,43-54.167c-5.333-7.667-12.667-6.333-12.667-6.333
		C686.667,355.333,683,393.5,683,393.5"/>
	<path fill="#818080" d="M625.667,699.659c10.667-17.667,16-46.333,16-46.333c6-7.667,16.333-15,16.333-15
		c11-10,19-41.333,19-41.333c3.333-8,8.333-8.333,8.333-8.333c8.333-17.999,13-33.332,13-33.332
		c4.333-1.667,9.667-10.333,9.667-10.333c2.333,96.667-12,74-12,74c-23-23-14.667,16-14.667,16C685,671.327,669,650.327,669,650.327
		c-10.667-21-11.667,13-11.667,13c1.333,17.999-5.667,14.666-5.667,14.666C641.667,690.992,625.667,699.659,625.667,699.659z"/>
</g>
<g id="Layer_2">
	<path fill="#030202" d="M817,1074c36.5-39.5,108-25.5,108-25.5c3,5-7,2-7,2c-26,2-44,13-44,13c-25.5,18-35.5,10.5-35.5,10.5
		C828.5,1070,817,1074,817,1074z"/>
	<path fill="#030202" d="M871.281,1092C961,1077.5,976.5,1054.5,976.5,1054.5c20.5-34,20.5-16,20.5-16c1,11.5,8.5,0.5,8.5,0.5
		c7-5.5,33,13,33,13c40.5,21.5,43.5,8.82,43.5,8.82c37-46.32,73.5-30.82,73.5-30.82c-46-6.5-52,29.456-52,29.456
		c-11.5,1.044-19,9.544-19,9.544c-20.5,5-41.5,3.5-41.5,3.5c-6.5-1-11.5,6-11.5,6c-23.5,9-38.5,5-38.5,5c-21.5,0-48.5,15-48.5,15
		C922.5,1110.5,871.281,1092,871.281,1092z"/>
	<path fill="#030202" d="M694,971c23.5,14,51.5,5,51.5,5c9-3.5,13.5-1.076,13.5-1.076c6.5,0.076,8.5-3.924,8.5-3.924
		c8-7,29.5-11,29.5-11c-18-10.5-51.5,6.5-51.5,6.5C726,976,694,971,694,971z"/>
	<path fill="#030202" d="M184.5,1700.79H229C356,1556,348,1387.5,348,1387.5C266.3,1608,184.5,1700.79,184.5,1700.79z"/>
	<path fill="#030202" d="M515,1646.5c7-15,8-25.5,8-25.5c72.5-124,144-286,144-286c132-67.5,197-197,197-197c-1-5-3.5,0-3.5,0
		c-23-3-39-14-39-14c-30.5-15.5-6.5,10-6.5,10c30.5,11.5-41,84-41,84c-10,3.5,15,16.5,15,16.5c5.4-0.7,0.6,3.3,0.6,3.3
		c-53.267,57.202-116.6,80.536-116.6,80.536c-14,6-21.333,22.666-21.333,22.666c-22,41.749-51.786,67.425-63.651,78.088
		c-2.333,2.097-3.682,3.248-3.682,3.248c-6.667,5.334,2.667,1.663,2.667,1.663c11.333-8.667,7.667,6.666,7.667,6.666
		c-3,53.666-74.333,184.333-74.333,184.333C519,1630.005,515,1646.5,515,1646.5z"/>
	<path fill="#030202" d="M414.667,1250.009c69.667-105.011,57.667-343.677,57.667-343.677C447,908.332,447,889.665,447,889.665
		c-4-8,2.667-12,2.667-12c6.667-21.333-9.333-27.27-9.333-27.27c-12-4.063-10-18.063-10-18.063c-10,30,6.667,79.333,6.667,79.333
		c7.333,20.667,3.333,44.911,3.333,44.911c-4.667,69.754-1.333,117.088-1.333,117.088
		C467.667,1147.664,414.667,1250.009,414.667,1250.009z"/>
	<path fill="#030202" d="M480.333,992.995c34.667-81.333,22-209.333,22-209.333c2.258-38.162-22-83.996-22-83.996
		C455.5,671,418.5,620,418.5,620c-0.662-3.313-4.5-4.5-4.5-4.5c-17-5.098-24.5-24.5-24.5-24.5c-0.1-4.2,2.5-5.2,2.5-5.2
		c31.2-13.8,21-19.6,21-19.6c-14,0.597-4.6-8.604-4.6-8.604c9.4-16.802-8.8-7.202-8.8-7.202c-14.2,12.4-5.4-5.4-5.4-5.4
		C439,459,392.5,424.5,392.5,424.5c-9-4-3.003-15.5-3.003-15.5c2.503-4-1.958-3-1.958-3C363,404,370,337.5,370,337.5
		c7.5-35.5,2-55.5,2-55.5c-7.5-13.5-0.5-13.5-0.5-13.5C387.5,259,389,244,389,244c-24.5-24.5-43.5-8-43.5-8c33,55.5,12,96.5,12,96.5
		c1.5,55,19,91.5,19,91.5c16.5,40,11,124,11,124C371,593.5,401,614,401,614c3.691,2.243,5,7.5,5,7.5c25,62,59.5,114.5,59.5,114.5
		C486.5,857.5,480.333,992.995,480.333,992.995z"/>
	<path fill="#030202" d="M498,533c0.105-0.585,0.217-1.166,0.335-1.743C502.15,512.613,512.5,498.5,512.5,498.5
		c-9.5-5.5-17-25-17-25c-3.5,3-6,8-6,8C498,498.5,498,533,498,533z"/>
	<path fill="#030202" d="M527.5,375c7.5-18,5-35.5,5-35.5c36-28.5,36-8.5,36-8.5c-3,10.5-5,8-5,8c-9.5-0.5-20,28-20,28
		c-1.5,5.5-2.5,3-2.5,3C534.5,370,527.5,375,527.5,375z"/>
	<path fill="#030202" d="M602.5,567.5c10.5-28,8.5-75.5,8.5-75.5c12-25.5,34.5-45,34.5-45c14.5,11.5,19.5,26.5,19.5,26.5
		C645,567.5,602.5,567.5,602.5,567.5z"/>
	<path d="M655.5,431l27.5-37.5c8,0.5,17-8,17-8C694.5,500.5,655.5,431,655.5,431z"/>
</g>
<g id="Layer_6">
	<polygon fill="#5B7778" points="948.667,711.998 1039,679.996 1295,780.661 	"/>
	<polygon fill="#5B7778" points="943.002,709 948.667,616 775.668,391.004 	"/>
	<polygon fill="#608182" points="948.667,709 981.002,657.668 1033.002,678.335 	"/>
	<polygon fill="#608182" points="946.002,707.001 978.668,657.668 950.002,618.335 	"/>
	<polygon fill="#79A0A2" points="948.667,612.666 963.333,351.003 778,391.004 	"/>
	<polygon fill="#7EABAD" points="778,389.005 976,286.339 963.333,348.339 	"/>
	<polygon fill="#89B3B5" points="978,282.673 1020,260.673 1015.333,68.008 	"/>
	<polygon fill="#89B3B5" points="978,286.339 1020,263.67 1013.667,328.003 967,347.003 	"/>
	<polygon fill="#89B3B5" points="967,349.668 1013.667,332.334 1007.667,379.334 	"/>
	<polygon fill="#7EABAD" points="778,387.005 976,284.005 1013.667,68.008 	"/>
	<polygon fill="#7EABAD" points="967,352.666 1007.333,381.666 978.668,652.663 950.333,614.329 	"/>
	<polygon fill="#8EBBBD" points="980.333,655.666 1228.333,548.667 1008.999,382.673 	"/>
	<polygon fill="#94C1C4" points="1009.666,379.334 1014.999,332.334 1079.999,305.337 1298.333,463.002 1292,521.001 
		1229.667,548.001 	"/>
	<polygon fill="#94C1C4" points="1015.668,327.005 1077.002,302.005 1021.668,263.67 	"/>
	<polygon fill="#C2D8D8" points="1022.001,260.011 1265.668,175.904 1017.001,68.008 	"/>
	<polygon fill="#C9E1E3" points="1021.668,68.008 1367.001,141.679 1268.335,174.346 	"/>
	<polygon fill="#B1D1D1" points="1023.334,261.679 1268.334,177.345 1323.334,201.01 1079.669,301.342 	"/>
	<polygon fill="#ABCED1" points="1081.669,303.34 1326.336,202.676 1298.333,459.005 	"/>
	<polygon fill="#B1D1D1" points="1328.003,204.675 1364.003,247.675 1349.003,496.34 1300.336,460.34 	"/>
	<polygon fill="#99C4C5" points="1300.336,462.672 1294.336,519.169 1347.003,496.34 	"/>
	<polygon fill="#669FA0" points="982.67,657.668 1229.67,550.002 1282.67,591.666 1038.003,678 	"/>
	<polygon fill="#599497" points="1040.67,679.996 1282.67,593.998 1300.002,780.661 	"/>
	<polygon fill="#629596" points="1286.002,593.998 1337.335,568 1302.002,776.33 	"/>
	<polygon fill="#629596" points="1304.668,776.33 1339.668,566.331 1535.001,467.667 	"/>
	<polygon fill="#6EA7A9" points="1284.666,591.003 1291.999,523.003 1231.617,550.002 	"/>
	<polygon fill="#71A7A9" points="1294.336,523.003 1287.666,591.003 1337.335,564.671 1348.666,499.004 	"/>
	<polygon fill="#71A7A9" points="1339.999,563.671 1350.332,499.004 1538.665,464.006 	"/>
	<polygon fill="#99C4C5" points="1350.667,496.34 1538.665,462.672 1365.667,248.67 	"/>
	<polygon fill="#90C8CB" points="1365.667,245.341 1372.333,145.008 1538.665,459.005 	"/>
	<polygon fill="#A7D4D6" points="1328,201.34 1370.333,143.674 1364.003,242.674 	"/>
	<polygon fill="#B7DBDD" points="1325,199.341 1368.667,143.674 1271.667,176.008 	"/>
</g>
</svg>
